<?xml version="1.0" encoding="utf-8"?>
<!-- Generator: Adobe Illustrator 24.3.0, SVG Export Plug-In . SVG Version: 6.00 Build 0)  -->
<svg version="1.1" id="Layer_1" xmlns="http://www.w3.org/2000/svg" xmlns:xlink="http://www.w3.org/1999/xlink" x="0px" y="0px"
	 viewBox="0 0 601.53 166.01" style="enable-background:new 0 0 601.53 166.01;" xml:space="preserve">
<style type="text/css">
	.st0{fill:#FFFFFF;}
	.st1{fill:url(#SVGID_1_);}
	.st2{fill:url(#SVGID_2_);}
	.st3{fill:#F0F1F1;}
	.st4{fill:url(#SVGID_3_);}
	.st5{fill:url(#SVGID_4_);}
	.st6{fill:url(#SVGID_5_);}
	.st7{fill:url(#SVGID_6_);}
	.st8{fill:url(#SVGID_7_);}
	.st9{fill:url(#SVGID_8_);}
	.st10{fill:url(#SVGID_9_);}
	.st11{fill:url(#SVGID_10_);}
	.st12{fill:url(#SVGID_11_);}
	.st13{fill:url(#SVGID_12_);}
	.st14{fill:url(#SVGID_13_);}
	.st15{fill:url(#SVGID_14_);}
	.st16{fill:url(#SVGID_15_);}
	.st17{fill:url(#SVGID_16_);}
	.st18{fill:url(#SVGID_17_);}
	.st19{fill:url(#SVGID_18_);}
	.st20{fill:url(#SVGID_19_);}
	.st21{fill:url(#SVGID_20_);}
	.st22{fill:url(#SVGID_21_);}
	.st23{fill:url(#SVGID_22_);}
	.st24{fill:url(#SVGID_23_);}
	.st25{fill:url(#SVGID_24_);}
	.st26{fill:url(#SVGID_25_);}
	.st27{fill:url(#SVGID_26_);}
</style>
<g>
	<g>
		<path d="M73.45,61.23c0,7.13-2.53,13.22-7.6,18.24c-5.03,5.07-11.11,7.6-18.24,7.6H0V0h47.61c7.13,0,13.21,2.53,18.24,7.6
			c5.07,5.07,7.6,11.15,7.6,18.24c0,5.35-1.52,10.22-4.56,14.59l-2.07,3.1l2.07,3.1C71.93,51.02,73.45,55.88,73.45,61.23z
			 M16.11,37.27h31.01c2.88,0,5.35-1.05,7.42-3.16c2.03-2.15,3.04-4.72,3.04-7.72s-1.01-5.56-3.04-7.66
			c-2.07-2.15-4.54-3.22-7.42-3.22H16.11V37.27z M47.13,71.57c2.88,0,5.35-1.07,7.42-3.22c2.03-2.11,3.04-4.66,3.04-7.66
			c0-3-1.01-5.55-3.04-7.66c-2.07-2.15-4.54-3.22-7.42-3.22H16.11v21.77H47.13z"/>
		<path d="M159.19,0v16.36h-57.16v19.03h39.04v16.3h-39.04v19.09h57.16v16.3H85.73V0H159.19z"/>
		<path d="M187.76,0v70.78h57.16v16.3h-73.45V0H187.76z"/>
		<path d="M307.85,0v16.36h-29.92v70.72h-16.36V16.36h-29.92V0H307.85z"/>
		<path d="M412.61,0v87.07h-16.3V25.9l-9.91,14.17l-20,28.58l-20.07-28.58l-9.91-14.17v61.17h-16.3V0h18.12l23.65,33.81l4.5,6.39
			l4.44-6.39L394.49,0H412.61z"/>
		<path d="M482.66,0l33.14,87.07h-17.45l-3.89-10.09l-1.28-3.53h-45.42l-1.4,3.47l-3.95,10.15h-17.51L458.88,0H482.66z
			 M454.08,57.16h32.84l-2.8-7.36l-8.33-22.07l-5.05-13.19l-5.11,13.19L457,49.74L454.08,57.16z"/>
		<path d="M544.37,87.07h-16.3V0h42.14c8.63,0,16.01,3.06,22.13,9.18c6.12,6.12,9.18,13.5,9.18,22.13c0,5.56-1.38,10.72-4.13,15.51
			c-2.68,4.66-6.32,8.41-10.95,11.25l-4.56,2.8l2.74,4.62l12.77,21.59h-18.97l-12.89-21.83l-1.58-2.67h-19.58V87.07z M544.37,46.27
			h25.84c4.13,0,7.66-1.46,10.58-4.38c2.96-2.92,4.44-6.44,4.44-10.58c0-4.13-1.48-7.66-4.44-10.58c-2.92-2.92-6.44-4.38-10.58-4.38
			h-25.84V46.27z"/>
	</g>
	<g>
		<polygon points="193.55,132.9 193.39,132.93 192.8,132.89 182.44,159.75 172.15,133.04 172.09,132.89 168.26,132.9 166.1,165.5 
			169.47,165.5 171.22,138.73 180.94,164.02 180.99,164.16 183.94,164.16 193.71,138.73 195.47,165.5 198.78,165.5 196.62,132.9 		
			"/>
		<path d="M220.64,132.9h-4.01l-11.94,32.3l-0.11,0.3h3.53l3.7-9.9h13.71l3.7,9.9h3.53l-12.05-32.46L220.64,132.9z M224.42,152.61
			h-11.53l5.78-15.51L224.42,152.61z"/>
		<path d="M251.3,150.79c6.28,0,10.49-3.59,10.49-8.92c0-5.45-4.12-8.97-10.49-8.97h-11.79v32.6h3.5v-14.71h3.05l11.82,14.63
			l0.07,0.08h4.19l-12.08-14.71H251.3z M243.01,136.07h8.24c4.34,0,7.04,2.29,7.04,5.98c0,3.69-2.7,5.98-7.04,5.98h-8.24V136.07z"/>
		<polygon points="292.92,133.28 293.33,132.9 288.98,132.9 273.51,147.14 273.51,132.9 270.01,132.9 270.01,165.5 273.51,165.5 
			273.51,149.82 290.49,165.44 290.55,165.5 294.99,165.5 276.85,148.39 		"/>
		<polygon points="304.19,150.14 319.28,150.14 319.28,146.96 304.19,146.96 304.19,136.07 320.76,136.07 320.76,132.9 
			300.69,132.9 300.69,165.5 321.08,165.5 321.08,162.32 304.19,162.32 		"/>
		<polygon points="325.78,136.12 336.09,136.12 336.09,165.5 339.64,165.5 339.64,136.12 349.96,136.12 349.96,132.9 325.78,132.9 
					"/>
		<rect x="356.92" y="132.9" width="3.5" height="32.6"/>
		<polygon points="391.39,159.22 373.8,133 373.73,132.9 370.8,132.9 370.8,165.5 374.3,165.5 374.3,139.22 392,165.5 394.94,165.5 
			394.94,132.9 391.39,132.9 		"/>
		<path d="M419.25,148.54v2.9h12.74c-0.93,6.98-5.6,11.31-12.24,11.31c-7.47,0-12.69-5.54-12.69-13.47c0-7.96,5.1-13.52,12.41-13.52
			c5.36,0,9.23,2.77,11.17,8l0.08,0.21l3.38-1.37l-0.08-0.2c-2.42-6.45-7.58-10-14.5-10c-9.3,0-16.05,7.08-16.05,16.83
			c0,9.73,6.75,16.79,16.05,16.79c9.37,0,15.91-7.09,15.91-17.25v-0.22H419.25z"/>
	</g>
	<g>
		<g>
			<rect x="464.46" y="147.75" width="59.46" height="2.89"/>
		</g>
		<g>
			<rect x="77.61" y="147.75" width="59.46" height="2.89"/>
		</g>
	</g>
</g>
</svg>
