<?xml version="1.0" encoding="utf-8"?>
<!-- Generator: Adobe Illustrator 24.3.0, SVG Export Plug-In . SVG Version: 6.00 Build 0)  -->
<svg version="1.1" id="Layer_1" xmlns="http://www.w3.org/2000/svg" xmlns:xlink="http://www.w3.org/1999/xlink" x="0px" y="0px"
	 viewBox="0 0 387.58 384.41" style="enable-background:new 0 0 387.58 384.41;" xml:space="preserve">
<style type="text/css">
	.st0{fill:#FFFFFF;}
	.st1{fill:url(#SVGID_1_);}
	.st2{fill:url(#SVGID_2_);}
	.st3{fill:#F0F1F1;}
	.st4{fill:url(#SVGID_3_);}
	.st5{fill:url(#SVGID_4_);}
	.st6{fill:url(#SVGID_5_);}
	.st7{fill:url(#SVGID_6_);}
	.st8{fill:url(#SVGID_7_);}
	.st9{fill:url(#SVGID_8_);}
	.st10{fill:url(#SVGID_9_);}
	.st11{fill:url(#SVGID_10_);}
	.st12{fill:url(#SVGID_11_);}
	.st13{fill:url(#SVGID_12_);}
	.st14{fill:url(#SVGID_13_);}
	.st15{fill:url(#SVGID_14_);}
	.st16{fill:url(#SVGID_15_);}
	.st17{fill:url(#SVGID_16_);}
	.st18{fill:url(#SVGID_17_);}
	.st19{fill:url(#SVGID_18_);}
	.st20{fill:url(#SVGID_19_);}
	.st21{fill:url(#SVGID_20_);}
	.st22{fill:url(#SVGID_21_);}
	.st23{fill:url(#SVGID_22_);}
	.st24{fill:url(#SVGID_23_);}
	.st25{fill:url(#SVGID_24_);}
	.st26{fill:url(#SVGID_25_);}
	.st27{fill:url(#SVGID_26_);}
</style>
<g>
	<g>
		<polygon points="305.71,59.32 279.05,124.45 238.18,103.34 224.5,111.94 223.61,112.52 205.24,124.38 205.09,124.49 
			177.07,142.55 205.09,159.02 205.09,384.41 272.74,335.35 247.71,323.69 247.71,149.68 264.91,159.02 297.11,176.49 
			312.45,141.73 344.96,68 344.96,246.55 331.71,292.58 387.58,252.09 387.58,6.51 		"/>
		<path d="M356.59,0H0v252.09l182.5,132.32V171.8l-48.28-28.36L356.59,0z M42.62,42.62h162.47h7.29L42.62,150.8V42.62z
			 M139.88,196.21v104.65l-97.25-70.52v-29.18l50.99-32.12L139.88,196.21z"/>
	</g>
</g>
</svg>
